<svg xmlns="http://www.w3.org/2000/svg" xmlns:xlink="http://www.w3.org/1999/xlink" xmlns:lucid="lucid" width="1580" height="1241.64"><g transform="translate(-220 -40)" lucid:page-tab-id="0_0"><path d="M0 0h1870.87v1322.83H0z" fill="#fff"/><path d="M560 66c0-3.3 2.7-6 6-6h268c3.3 0 6 2.7 6 6v78c0 3.3-2.7 6-6 6H566c-3.3 0-6-2.7-6-6z" stroke="#000" stroke-opacity="0" fill="#fff" fill-opacity="0"/><use xlink:href="#a" transform="matrix(1,0,0,1,565,65) translate(78.67777777777778 35.8)"/><use xlink:href="#b" transform="matrix(1,0,0,1,565,65) translate(43.5888888888889 61.62222222222222)"/><use xlink:href="#c" transform="matrix(1,0,0,1,565,65) translate(79.36666666666667 61.62222222222222)"/><use xlink:href="#d" transform="matrix(1,0,0,1,565,65) translate(174.14444444444445 61.62222222222222)"/><use xlink:href="#e" transform="matrix(1,0,0,1,565,65) translate(192.74444444444444 61.62222222222222)"/><path d="M589.06 767.17c0-3.3 2.7-6 6-6h228c3.3 0 6 2.7 6 6v49.64c0 3.33-2.7 6-6 6h-228c-3.3 0-6-2.67-6-6z" stroke="#000" stroke-opacity="0" fill="#fff" fill-opacity="0"/><use xlink:href="#f" transform="matrix(1,0,0,1,594.0594291338582,766.1703749006145) translate(17.27777777777777 20.8)"/><use xlink:href="#g" transform="matrix(1,0,0,1,594.0594291338582,766.1703749006145) translate(119.5 20.8)"/><use xlink:href="#h" transform="matrix(1,0,0,1,594.0594291338582,766.1703749006145) translate(53.61111111111111 46.62222222222222)"/><path d="M849.06 233.3c0-3.32 2.7-6 6-6h228c3.3 0 6 2.68 6 6v49.64c0 3.3-2.7 6-6 6h-228c-3.3 0-6-2.7-6-6z" stroke="#000" stroke-opacity="0" fill="#fff" fill-opacity="0"/><use xlink:href="#i" transform="matrix(1,0,0,1,854.0594291338582,232.29539165261852) translate(22.69999999999999 20.8)"/><use xlink:href="#j" transform="matrix(1,0,0,1,854.0594291338582,232.29539165261852) translate(39.14444444444443 46.62222222222222)"/><use xlink:href="#k" transform="matrix(1,0,0,1,854.0594291338582,232.29539165261852) translate(74.92222222222222 46.62222222222222)"/><path d="M1068 713.9c0-3.3 2.68-6 6-6h228c3.3 0 6 2.7 6 6v49.65c0 3.3-2.7 6-6 6h-228c-3.32 0-6-2.7-6-6z" stroke="#000" stroke-opacity="0" stroke-width="4" fill="#fff" fill-opacity="0"/><use xlink:href="#l" transform="matrix(1,0,0,1,1072.9924999999998,712.9009807121818) translate(47.84444444444445 20.8)"/><use xlink:href="#m" transform="matrix(1,0,0,1,1072.9924999999998,712.9009807121818) translate(87.16666666666667 46.62222222222222)"/><path d="M1540 846c0-3.3 2.7-6 6-6h228c3.3 0 6 2.7 6 6v49.64c0 3.32-2.7 6-6 6h-228c-3.3 0-6-2.68-6-6z" stroke="#000" stroke-opacity="0" stroke-width="4" fill="#fff" fill-opacity="0"/><use xlink:href="#n" transform="matrix(1,0,0,1,1545,845) translate(56.75555555555556 20.8)"/><use xlink:href="#o" transform="matrix(1,0,0,1,1545,845) translate(51.57777777777778 46.62222222222222)"/><path d="M748.2 1206c0-3.3 2.7-6 6-6h228c3.32 0 6 2.7 6 6v49.64c0 3.32-2.68 6-6 6h-228c-3.3 0-6-2.68-6-6z" stroke="#000" stroke-opacity="0" stroke-width="4" fill="#fff" fill-opacity="0"/><use xlink:href="#p" transform="matrix(1,0,0,1,753.2071430681463,1205) translate(55.05555555555556 20.8)"/><use xlink:href="#q" transform="matrix(1,0,0,1,753.2071430681463,1205) translate(49.16666666666666 46.62222222222222)"/><path d="M1068 1010.56c0-3.3 2.68-6 6-6h228c3.3 0 6 2.7 6 6v49.65c0 3.32-2.7 6-6 6h-228c-3.32 0-6-2.68-6-6z" stroke="#000" stroke-opacity="0" stroke-width="4" fill="#fff" fill-opacity="0"/><use xlink:href="#l" transform="matrix(1,0,0,1,1072.9924999999998,1009.5609472081741) translate(47.84444444444445 20.8)"/><use xlink:href="#m" transform="matrix(1,0,0,1,1072.9924999999998,1009.5609472081741) translate(87.16666666666667 46.62222222222222)"/><path d="M828 868.3c0-3.32 2.68-6 6-6h228c3.3 0 6 2.68 6 6v49.64c0 3.3-2.7 6-6 6H834c-3.32 0-6-2.7-6-6z" stroke="#000" stroke-opacity="0" stroke-width="4" fill="#fff" fill-opacity="0"/><use xlink:href="#l" transform="matrix(1,0,0,1,832.9924999999998,867.2953916526186) translate(47.84444444444445 20.8)"/><use xlink:href="#r" transform="matrix(1,0,0,1,832.9924999999998,867.2953916526186) translate(59.388888888888886 46.62222222222222)"/><path d="M240 1072.2c0-3.3 2.7-6 6-6h214.5c3.3 0 6 2.7 6 6v88c0 3.32-2.7 6-6 6H246c-3.3 0-6-2.68-6-6z" stroke="#3a414a" stroke-width="4" fill="#fff"/><use xlink:href="#s" transform="matrix(1,0,0,1,245,1071.2053916526186) translate(45.63333333333334 40.4875)"/><use xlink:href="#t" transform="matrix(1,0,0,1,245,1071.2053916526186) translate(34.977777777777774 66.30972222222222)"/><path d="M470.5 1116.2h6.23m8.3 0h12.45m8.3 0h12.46m8.3 0H539m8.3 0h12.45m8.3 0h12.46m8.3 0h12.46m8.3 0h12.46m8.3 0h12.4m8.22 0h12.33m8.22 0h12.32m8.22 0h12.33m8.22 0h12.32m8.22 0h12.33m8.22 0H766m8.23 0h12.33m8.22 0h6.16" stroke="#3a414a" stroke-width="4" fill="none"/><path d="M470.55 1118.2h-2.05v-4h2.05z" stroke="#3a414a" stroke-width=".05" fill="#3a414a"/><path d="M783.46 1126.4l17.2-10.2-17.2-10.18" stroke="#3a414a" stroke-width="4" fill="none"/><path d="M520 1066c0-3.3 2.7-6 6-6h228c3.3 0 6 2.7 6 6v48c0 3.3-2.7 6-6 6H526c-3.3 0-6-2.7-6-6z" stroke="#000" stroke-opacity="0" stroke-width="4" fill="#fff" fill-opacity="0"/><use xlink:href="#u" transform="matrix(1,0,0,1,525,1065) translate(53.488888888888894 33.3)"/><path d="M805.5 60.54c-.53.54-.53 1.62-.7 6.34v5.72l-1.56.46c-3.65 1-4.7 3.56-3.82 8.58 1.73 8.43 8.15 11.6 12.32 6.03 1.4-1.93 2.6-6.03 2.6-8.9v-2.3h27.4l.88 1.93.87 1.85-2.1 1.47c-5.2 3.7-9.2 9.35-11.1 15.6-.7 2.4-.87 3.03-.87 17.64-.17 16-.17 16.07 1.4 16.07 1.38 0 1.55-.54 1.55-5.02v-4.24h3.3v-7.58H832.2l.18-6.57c.35-7.17.7-9.26 2.6-13.13 1.9-4.1 5.04-7.88 8.68-10.5l1.22-.86.52 1.25c.34.7 1.04 1.4 1.56 1.62 1.2.62 42.85.62 44.07 0 .52-.23 1.04-.93 1.56-1.62l.5-1.24 1.22.86c3.65 2.63 6.77 6.42 8.68 10.44 1.9 4.1 2.25 6.03 2.6 13.2l.17 6.58H902.3v7.58h3.3V126c0 4.5.17 5.03 1.56 5.03 1.56 0 1.56-.07 1.4-16.07 0-14.6-.18-15.23-.88-17.63-1.9-6.33-5.9-11.9-11.27-15.7l-1.9-1.38.86-1.93.87-1.78h27.24l.17 2.86c.35 7.1 4.34 12.06 8.85 10.9 1.38-.4 2.6-1.24 3.64-2.94 2.08-3 3.3-9.35 2.25-11.44-.7-1.47-2.44-2.7-4-2.93l-1.4-.25v-5.8c0-5.25 0-5.95-.5-6.4-.7-.7-1.74-.7-2.6-.16-.53.45-.7 1-.53 6.32v5.8l-19.43-.08-19.43-.07-.17-1.16c-.7-2-.52-2-8.33-2h-7.1l-.88-1.08c-.86-1.47-3.12-2.55-5.03-2.55-1.92 0-4.35 1.15-5.2 2.55l-.7 1.08h-7.12c-7.8 0-7.63 0-8.33 2l-.17 1.17-19.43.07-19.44.08v-5.95c0-5.5 0-5.95-.68-6.26-.87-.45-1.9-.38-2.43.24z" stroke="#000" stroke-opacity="0" stroke-width=".01"/><path d="M785.7 64.25c-3.1.7-4.15 1.55-2.94 2.7 1.74 1.86 7.98 2.87 14.75 2.33 2.44-.24 4.7-.55 4.7-.7.17-.15.34-.93.17-1.7 0-1.4 0-1.47-1.22-1.55-.7-.07-2.43-.3-3.8-.6-3.48-.56-9.73-.87-11.64-.48zM814.5 64.25c-1.37.16-2.76.4-3.1.47-.36.23-.53 3.16-.18 3.16.17 0 2.08.3 4.33.62 5.9.93 8.85 1.16 11.46.78 5.73-.78 5.73-2.86.35-4.5-2.25-.68-8.85-.92-12.84-.53zM912.02 64.4c-3.12.7-5.2 1.86-5.2 2.87 0 1 1.2 1.54 4.16 2 2.6.4 5.55.16 11.45-.7 2.26-.38 4.16-.7 4.34-.7.17 0 .17-.68.17-1.53-.17-1.55-.17-1.55-1.56-1.78-3.12-.54-11.1-.62-13.36-.15zM944.8 64.17c-.5 0-2.42.3-4.15.62-1.56.22-3.47.53-4 .53-1.03.08-1.03.16-1.2 1.86 0 1.23.17 1.7.34 1.7.34 0 2.42.14 4.85.38 4.86.38 9.2.07 12.32-1 4.85-1.86 3.12-3.95-3.82-4.18-1.74-.08-3.82 0-4.34.07zM861.7 96.02c-.7.3-1.38 1-1.73 1.55l-.52 1h-6.77c-3.8 0-7.46.23-7.98.4-1.4.45-3.47 2.6-3.8 4.16-.54 1.86-.54 28.06 0 29.6.5 1.7 1.9 3.25 3.46 3.95 1.38.62 2.6.62 24.63.62 22.03 0 23.24 0 24.63-.62 1.56-.78 2.95-2.32 3.47-4.18.52-1.77.52-27.6 0-29.37-.52-1.55-2.08-3.48-3.64-4.1-.87-.3-2.78-.46-7.46-.46-3.47 0-6.6 0-7.12-.15-.35-.08-.87-.55-1.04-1-.17-.4-.87-1.1-1.4-1.4-1.03-.62-1.72-.7-7.45-.7-5.56 0-6.43.08-7.3.7zm29.33 8.5c1.2 1.16 1.2 2.24.34 3.48-1.38 1.78-4.68.7-4.68-1.47 0-2.7 2.42-3.8 4.33-2zm-16.14.85c5.72 2.7 9.2 8.9 7.97 14.7-1.2 6.87-6.94 11.58-13.88 11.58-6.95 0-12.85-4.87-14.06-11.67-1.04-6.26 2.95-12.75 9.37-15.07 2.78-1 8-.76 10.6.47z" stroke="#000" stroke-opacity="0" stroke-width=".01"/><path d="M866.04 109.86c-2.25.77-4.16 2.55-5.2 4.8-1.4 3.08-.52 7.33 2.08 9.65 3.12 2.72 8.15 2.87 11.8.24 2.77-2.1 3.8-6.57 2.43-9.97-1.04-2.24-3.3-4.17-5.56-4.87-2.26-.62-3.48-.62-5.56.16z" stroke="#000" stroke-opacity="0" stroke-width=".01"/><path d="M924.12 1056.53V1130H813.86v-73.47h110.26m0-9.23H813.86c-5.14 0-9.26 4.13-9.26 9.23V1130c0 5.1 4.12 9.22 9.26 9.22h110.26c5 0 9.12-4.13 9.12-9.23v-73.47c0-5.1-4.12-9.23-9.12-9.23zm9.12 94.13h-128.5L795.5 1169H942.5l-9.26-27.57zm-120.85 4.68h113.2l5.58 18.34H806.8l5.6-18.33zm-16.92 25.23v4.55c0 5.1 4.12 9.24 9.27 9.24h128.5c5.13 0 9.25-4.14 9.25-9.24v-4.55H795.48zm114.82 11.44c-2.5 0-4.55-2.06-4.55-4.55 0-2.48 2.05-4.54 4.55-4.54s4.56 2.06 4.56 4.54c0 2.5-2.06 4.55-4.56 4.55zm18.38 0c-2.5 0-4.56-2.06-4.56-4.55 0-2.48 2.06-4.54 4.56-4.54 2.5 0 4.56 2.06 4.56 4.54 0 2.5-2.06 4.55-4.56 4.55z" stroke="#000" stroke-opacity="0" stroke-width=".15"/><path d="M835.98 635.58c-.8.14-2.07.68-2.7 1.08-1.68.94-3.66 3.23-4.3 4.98-.56 1.6-.56 1.74-.56 60.66v59.18l.64 1.6c.8 2.16 3.34 4.72 5.65 5.66l1.68.67 31.27.15c34.37 0 33.1.13 35.9-1.75 1.74-1.08 2.93-2.56 3.8-4.58l.64-1.6V643.1l-.64-1.62c-1.36-3.1-3.58-5.1-6.77-6.05-2.47-.54-62.23-.54-64.62.13zm42.1 5.25c.87.94.87 1.88.07 2.82l-.7.94h-9.08c-5.02 0-9.3-.14-9.55-.14-.64-.27-1.35-1.75-1.12-2.42.56-1.75.24-1.6 10.5-1.6 8.6 0 9.48 0 9.87.4zm26 58.37v49.63h-71.75V649.7h71.77v49.5zm-33 54.34c1.74.94 3.1 2.82 3.4 4.57.5 2.57-1.18 5.66-3.57 6.74-1.5.67-3.9.67-5.4 0-2.4-1.08-4.06-4.17-3.58-6.73.48-2.8 3.42-5.37 6.3-5.37.94 0 1.82.27 2.85.8zM1451 799.67c-.7.5-14.3 19.3-14.76 20.55l-.57 1.12-.1 48.3c0 35.75 0 48.57.22 49.44.33 1.5 1.46 3.37 2.7 4.24l.92.62h105.78l.9-.62c1.14-.87 2.16-2.24 2.62-3.86.34-1.12.34-5.23.34-49.68l-.1-48.44-.58-1.12c-.57-1.37-14.42-20.42-14.98-20.67-.57-.25-81.95-.13-82.4.12zm85 10.7l4.32 5.86-24.06.13h-47.9l-24.06-.13 4.3-5.85 4.32-5.85h78.77l4.3 5.85zm9.1 25.8v14.43h-105.57V821.84h105.58v14.32zm0 34.1v14.45h-105.57V855.7h105.58v14.57zm0 34l-.13 14.44h-105.31l-.12-14.43v-14.32h105.58v14.32z" stroke="#000" stroke-opacity="0" stroke-width=".01"/><path d="M1454.3 830.93c-1.15 1-5.23 6.47-5.46 7.34-.46 1.75.45 3.36 1.8 3.36.92 0 1.04-.24 3.76-3.6 2.72-3.5 2.84-3.74 2.84-4.86 0-2.12-1.6-3.36-2.95-2.24zM1470.52 830.68c-.34.12-1.7 1.87-3.18 3.86-2.5 3.23-2.72 3.6-2.72 4.6 0 1.5.8 2.5 2.04 2.5.9 0 1.02-.13 3.74-3.62 2.6-3.36 2.84-3.86 2.84-4.73 0-1.88-1.47-3.25-2.72-2.62zM1531 832.67c-.78.75-1.46 2.24-1.46 3.5 0 2.1 1.6 4.1 3.18 4.1 2.83 0 4.3-4.5 2.15-7.1-.9-1.12-2.84-1.37-3.86-.5zM1451.22 868.9c-2.6 3.37-2.84 3.74-2.84 4.74 0 2 1.48 3.23 2.84 2.36.34-.25 1.82-2 3.18-3.86 2.72-3.6 2.95-4.1 2.38-5.6-.45-1-.9-1.37-1.8-1.37-.92 0-1.03.25-3.76 3.73zM1467.23 868.78c-1.6 2-2.84 3.98-2.96 4.36-.22 1.12.46 2.6 1.37 3 .56.23.9.23 1.47-.14.8-.5 5.35-6.35 5.7-7.35.44-1.74-.47-3.48-1.94-3.48-.68 0-1.14.37-3.63 3.6zM1530.8 867.16c-2.62 2.12-1.6 7.47 1.46 7.6 3.07.12 4.43-4.5 2.04-7.23-.8-1-2.6-1.12-3.5-.37zM1454.3 899.4c-.24.13-1.72 1.88-3.2 3.75-2.5 3.36-2.72 3.73-2.72 4.73 0 1.5.8 2.36 2.05 2.36.9 0 1.02 0 3.63-3.48 1.7-2.12 2.84-3.86 2.84-4.36.22-1.12-.23-2.5-1.14-2.87-.8-.5-.9-.5-1.47-.12zM1470.3 899.4c-.35.13-1.7 1.88-3.3 3.87-2.38 3.24-2.73 3.6-2.73 4.6 0 1.38.8 2.37 1.93 2.37.9 0 1.03-.12 3.75-3.6 2.6-3.37 2.84-3.87 2.95-4.74 0-1.74-1.47-3.24-2.6-2.5zM1530.8 901.4c-1.94 1.5-1.94 5.36 0 6.85.44.37 1 .62 1.7.62.9 0 1.24-.12 1.92-1.12 1.13-1.24 1.47-3 .8-4.73-.8-2.12-2.96-2.86-4.43-1.62z" stroke="#000" stroke-opacity="0" stroke-width=".01"/><path d="M909.92 702.8l522.2 140.26" stroke="#3a414a" stroke-width="4" fill="none"/><path d="M910.5 700.9l-1.05 3.86-1.46-.4v-4.14z" stroke="#3a414a" stroke-width=".05" fill="#3a414a"/><path d="M1412.56 848.35l19.27-5.37-14-14.3M1433.77 889.1l-497.15 196.46" stroke="#3a414a" stroke-width="4" fill="none"/><path d="M1435.64 890.52l-1.18.46-1.47-3.72 2.63-1.04z" stroke="#3a414a" stroke-width=".05" fill="#3a414a"/><path d="M949.16 1069.66l-12.27 15.8 19.74 3.13" stroke="#3a414a" stroke-width="4" fill="none"/><path d="M240 658.3c0-3.32 2.7-6 6-6h214.5c3.3 0 6 2.68 6 6v88c0 3.3-2.7 6-6 6H246c-3.3 0-6-2.7-6-6z" stroke="#3a414a" stroke-width="4" fill="#fff"/><use xlink:href="#s" transform="matrix(1,0,0,1,245,657.2953916526184) translate(45.63333333333334 40.4875)"/><use xlink:href="#v" transform="matrix(1,0,0,1,245,657.2953916526184) translate(32.633333333333326 66.30972222222222)"/><use xlink:href="#w" transform="matrix(1,0,0,1,245,657.2953916526184) translate(77.34444444444443 66.30972222222222)"/><use xlink:href="#x" transform="matrix(1,0,0,1,245,657.2953916526184) translate(144.43333333333334 66.30972222222222)"/><path d="M470.5 702.3h5.9m7.88 0h11.8m7.88 0h11.8m7.88 0h11.8m7.9 0h11.8m7.87 0h11.82m7.87 0h11.8m7.87 0h11.8m7.9 0h11.8m7.87 0h11.8m7.88 0h11.8m7.88 0h11.8m7.9 0h11.8m7.87 0h11.8m7.88 0h11.8m7.88 0h11.8m7.9 0h11.8m7.87 0H811m7.88 0h5.9" stroke="#3a414a" stroke-width="4" fill="none"/><path d="M470.55 704.3h-2.05v-4h2.05z" stroke="#3a414a" stroke-width=".05" fill="#3a414a"/><path d="M807.28 712.48l17.2-10.18-17.2-10.2" stroke="#3a414a" stroke-width="4" fill="none"/><path d="M520 646c0-3.3 2.7-6 6-6h228c3.3 0 6 2.7 6 6v48c0 3.3-2.7 6-6 6H526c-3.3 0-6-2.7-6-6z" stroke="#000" stroke-opacity="0" stroke-width="4" fill="#fff" fill-opacity="0"/><use xlink:href="#u" transform="matrix(1,0,0,1,525,645) translate(53.488888888888894 33.3)"/><path d="M864.88 323.04c-.64.24-1.7 1.07-2.57 1.78-4.7 4.27-3.74 11.62 1.83 14.34l1.83.95-.1 10.08v10.2l-8.8.23c-8.47.13-8.9.13-10.08.72-2.78 1.42-4.93 4.15-5.46 7.1l-.22 1.08-11.04.12c-12.1 0-12.22 0-13.82 1.54-1.93 1.9-1.83-.12-1.83 34.84l.12 31.52.86 1.18c.43.7 1.4 1.54 1.93 1.9l1.2.6 49.83-.13h49.84l1.07-.95c.65-.35 1.4-1.3 1.72-2l.64-1.3v-62.7l-.64-1.42c-.54-.95-1.07-1.66-1.93-2.25l-1.18-.72-11.68-.1-11.58-.13-.23-1.2c-.42-2.83-2.57-5.56-5.25-6.98l-1.7-.83h-17.16v-20.4l1.5-.7c1.82-.95 3.54-2.6 4.4-4.4.96-1.88.96-5.56 0-7.22-.97-1.77-2.36-3.2-4.08-4.14-1.18-.7-1.82-.83-3.86-.95-1.6 0-2.68.1-3.54.34zm5.58 4.74c2.14 1.2 2.78 3.92 1.6 5.8-.42.6-1.17 1.3-1.92 1.67-3.97 2-7.94-2.13-5.68-6.04 1.17-2 3.85-2.72 6-1.42zm17.15 37.7c.97.46 1.94 1.77 2.37 3.2l.2.82h-44.04l.1-.83c.22-1.2 1.5-2.73 2.58-3.2.65-.36 4.4-.36 19.3-.48 16.5 0 18.65.1 19.5.47zm29.27 9c.43.47.43 1.77.43 30.8 0 20.4 0 30.46-.22 30.93-.32.5-1.17.5-48.98.5-44.16 0-48.66 0-48.88-.5-.1-.22-.1-14.1-.1-30.92 0-23.46 0-30.7.32-30.92.2-.24 11.36-.36 48.55-.36 44.58 0 48.33.12 48.87.47z" stroke="#000" stroke-opacity="0" stroke-width=".01"/><path d="M893.3 387.5c-5.16 1.55-6.76 7.83-3 11.5 1.27 1.2 2.88 1.78 4.7 1.78 2.8 0 5.04-1.54 6.1-4.03 1.1-2.5.44-5.7-1.6-7.58-1.6-1.54-4.17-2.25-6.2-1.66zm3.1 5.1c1.93 1.9.2 4.5-2.25 3.56-1.08-.36-1.72-1.66-1.4-2.5.32-.94 1.6-1.88 2.25-1.88.33 0 .97.35 1.4.82zM838.2 389.88l-.76.7v12.45h-6.2c-5.8 0-6.34 0-6.98.48-.32.36-.75.95-.86 1.3-.2.84.43 2.26 1.08 2.5.32.12 3.32.12 6.75.12h6.2v6.4c.12 6.87.12 7.1 1.52 7.7.96.35 1.92 0 2.57-.95.43-.47.43-1.54.43-6.87v-6.28h6.2c6.23 0 6.34 0 6.87-.6.75-.82.75-2.13.1-3.08-.53-.6-.63-.6-6.85-.7l-6.32-.13v-6.27c-.1-6.28-.1-6.4-.75-6.87-.97-.7-2.25-.7-3 .12zM882.46 398.77c-5.46 1.06-7.18 8.17-2.78 11.85 3.75 3.3 9.43 1.18 10.5-3.9.97-4.64-3-8.78-7.72-7.95zm2.8 4.86c1.38 1.18.3 4.14-1.62 4.14-1.18 0-2.25-1.77-1.93-3.32.33-1.18 2.37-1.77 3.55-.82zM904.76 398.77c-4.18.83-6.43 5.45-4.6 9.48 1.7 3.67 6 5.1 9.3 2.96 3.55-2.12 4.2-7.57 1.4-10.42-1.7-1.78-3.74-2.37-6.1-2zm2.9 4.97c.74.7.63 2.5-.22 3.32-1.07 1.07-2.47.83-3.22-.6-1.18-2.36 1.4-4.5 3.43-2.72zM892.65 410.38c-7.08 2.6-5.15 13.15 2.46 13.15 3.87 0 6.98-3.55 6.55-7.58-.32-3.32-2.9-5.7-6.22-5.8-.96-.13-2.14 0-2.78.23zm3.96 4.86c.87.95.76 2.25-.1 3.08-1.5 1.54-3.96.24-3.75-2.13.1-.72 1.4-1.67 2.36-1.67.76 0 1.08.12 1.5.7zM858.45 416.78c-1.5.6-1.93 2.5-.75 3.55.54.6.97.6 3.86.6 3.22 0 3.22 0 3.86-.7.75-.96.64-1.9-.1-2.86-.65-.7-.86-.7-3.44-.83-1.5 0-3.1.12-3.43.24zM871.64 416.78c-.75.24-1.5 1.3-1.5 2.13 0 .37.32.96.64 1.32.54.7.64.7 3.97.7 3.2 0 3.43 0 3.96-.6 1.2-1.17.76-2.95-.85-3.54-.96-.36-5.36-.36-6.2 0z" stroke="#000" stroke-opacity="0" stroke-width=".01"/><path d="M828 517.17c0-3.3 2.68-6 6-6h228c3.3 0 6 2.7 6 6v49.64c0 3.33-2.7 6-6 6H834c-3.32 0-6-2.67-6-6z" stroke="#000" stroke-opacity="0" stroke-width="4" fill="#fff" fill-opacity="0"/><g><use xlink:href="#y" transform="matrix(1,0,0,1,832.9924999999998,516.1703749006145) translate(46.95555555555555 20.8)"/><use xlink:href="#z" transform="matrix(1,0,0,1,832.9924999999998,516.1703749006145) translate(94.84444444444445 46.62222222222222)"/></g><path d="M600 384.94c0-3.3 2.7-6 6-6h228c3.3 0 6 2.7 6 6v49.64c0 3.32-2.7 6-6 6H606c-3.3 0-6-2.68-6-6z" stroke="#000" stroke-opacity="0" stroke-width="4" fill="#fff" fill-opacity="0"/><g><use xlink:href="#p" transform="matrix(1,0,0,1,605,383.939836097063) translate(55.05555555555556 20.8)"/><use xlink:href="#A" transform="matrix(1,0,0,1,605,383.939836097063) translate(63.84444444444444 46.62222222222222)"/></g><path d="M868.2 773.18v270.48M878.4 790.68l-10.2-17.2-10.17 17.2M858.03 1026.15l10.18 17.22 10.2-17.22M868.2 631.66V444.7M858.03 614.15l10.18 17.22 10.2-17.22M878.4 462.22L868.2 445l-10.17 17.22M868.22 319.06l.42-178.13M858.08 301.53l10.14 17.24 10.22-17.2M878.78 158.46l-10.14-17.24-10.22 17.2" stroke="#3a414a" stroke-width="4" fill="none"/><defs><path fill="#3a414a" d="M511-566c7 36 6 62 1 95L184-344l328 122c5 30 6 72-1 100L95-291c-8-32-8-74 0-106" id="B"/><path fill="#3a414a" d="M52-247c-2-202 150-315 357-263v-223c30-5 68-5 98 0v719C452 1 390 13 317 12 147 10 53-74 52-247zm105 0C150-94 269-47 409-80v-346c-26-11-56-16-93-16-113 0-154 81-159 195" id="C"/><path fill="#3a414a" d="M179 0c-30 5-69 5-99 0v-513c25-5 59-5 84 0 4 18 9 60 9 81 31-50 86-96 175-82 7 27 4 63-1 90-117-14-168 53-168 169V0" id="D"/><path fill="#3a414a" d="M527-256c0 162-77 268-239 268S49-94 49-256c0-163 77-269 239-269s239 106 239 269zm-373 0c0 107 33 189 134 189s135-82 135-189-34-188-135-188-134 81-134 188" id="E"/><path fill="#3a414a" d="M179 0c-30 5-69 5-99 0v-513c26-5 58-5 84 0 4 18 9 62 9 83 33-51 81-95 164-95 123 0 172 74 172 200V0c-30 5-69 5-99 0v-298c-1-83-18-138-92-138-188 0-129 255-139 436" id="F"/><path fill="#3a414a" d="M291-525c162 0 229 122 212 293H154c2 110 56 161 166 162 47 0 92-8 135-25 10 19 18 51 19 79-45 19-96 28-160 28C139 11 49-81 49-253c0-164 78-272 242-272zm117 219c-3-82-37-140-120-140-87 0-124 58-133 140h253" id="G"/><path fill="#3a414a" d="M89-122c-5-30-6-66 0-95l327-127L89-466c-8-29-6-71 0-100l417 169c7 32 9 74 0 106" id="H"/><g id="a"><use transform="matrix(0.022222222222222223,0,0,0.022222222222222223,0,0)" xlink:href="#B"/><use transform="matrix(0.022222222222222223,0,0,0.022222222222222223,13.333333333333334,0)" xlink:href="#B"/><use transform="matrix(0.022222222222222223,0,0,0.022222222222222223,26.666666666666668,0)" xlink:href="#C"/><use transform="matrix(0.022222222222222223,0,0,0.022222222222222223,39.68888888888889,0)" xlink:href="#D"/><use transform="matrix(0.022222222222222223,0,0,0.022222222222222223,47.955555555555556,0)" xlink:href="#E"/><use transform="matrix(0.022222222222222223,0,0,0.022222222222222223,60.77777777777778,0)" xlink:href="#F"/><use transform="matrix(0.022222222222222223,0,0,0.022222222222222223,73.62222222222222,0)" xlink:href="#G"/><use transform="matrix(0.022222222222222223,0,0,0.022222222222222223,85.97777777777777,0)" xlink:href="#H"/><use transform="matrix(0.022222222222222223,0,0,0.022222222222222223,99.31111111111109,0)" xlink:href="#H"/></g><path fill="#3a414a" d="M261 12C204 12 136 7 89 0v-719c48-5 121-11 176-11 248-2 375 129 376 372 0 252-129 369-380 370zm272-373c0-210-125-303-342-274v551c219 30 342-60 342-277" id="I"/><path fill="#3a414a" d="M44-87c79 25 167 7 167-90v-453H85c-5-27-5-63 0-89h228v519c2 139-56 214-193 212-32 0-66-6-92-12 0-32 7-61 16-87" id="J"/><path fill="#3a414a" d="M190 0c-30 5-71 5-102 0v-719c31-5 71-5 102 0V0" id="K"/><g id="b"><use transform="matrix(0.022222222222222223,0,0,0.022222222222222223,0,0)" xlink:href="#I"/><use transform="matrix(0.022222222222222223,0,0,0.022222222222222223,15.533333333333333,0)" xlink:href="#J"/><use transform="matrix(0.022222222222222223,0,0,0.022222222222222223,24.333333333333336,0)" xlink:href="#K"/></g><path fill="#3a414a" d="M190 0c-31 4-71 4-102 0v-720c51-6 110-11 167-11 165 1 272 65 273 232 0 191-141 257-338 239V0zm232-498c0-129-104-157-232-142v291c129 18 232-18 232-149" id="L"/><path fill="#3a414a" d="M178 0c-30 5-69 5-99 0v-733c30-5 69-5 99 0v298c31-48 77-90 157-90 123 0 173 74 173 200V0c-30 5-68 5-98 0v-298c0-83-21-137-95-138-189-2-126 257-137 436" id="M"/><path fill="#3a414a" d="M147-154c0 102 122 93 204 76v-163c-92-14-204-10-204 87zm-99 2c0-149 148-187 303-167 6-90-33-124-117-124-48 0-87 9-125 20-13-22-19-48-19-79 41-14 101-23 154-23 133 1 204 57 204 191v321C399-2 324 13 261 12 136 11 48-29 48-152" id="N"/><path fill="#3a414a" d="M252 8C153 7 99-38 99-143v-291H21l-4-14 172-192h8v127h130c6 23 5 56 0 79H197v234c1 73 0 128 75 128 22 0 42-4 59-8 9 22 10 51 10 78-27 7-56 10-89 10" id="O"/><path fill="#3a414a" d="M179 0c-30 5-69 5-99 0v-513c26-5 58-5 84 0 4 18 9 60 9 81 28-52 72-92 150-93 82-1 118 35 142 93 31-49 71-93 150-93 124 0 169 72 170 198V0c-30 5-69 5-99 0v-298c-1-81-17-138-90-138-76 0-114 61-114 146V0c-30 5-68 5-98 0v-305c-1-77-15-134-84-134-172 0-109 266-121 439" id="P"/><g id="c"><use transform="matrix(0.022222222222222223,0,0,0.022222222222222223,0,0)" xlink:href="#L"/><use transform="matrix(0.022222222222222223,0,0,0.022222222222222223,12.577777777777778,0)" xlink:href="#M"/><use transform="matrix(0.022222222222222223,0,0,0.022222222222222223,25.422222222222224,0)" xlink:href="#N"/><use transform="matrix(0.022222222222222223,0,0,0.022222222222222223,36.91111111111111,0)" xlink:href="#F"/><use transform="matrix(0.022222222222222223,0,0,0.022222222222222223,49.75555555555556,0)" xlink:href="#O"/><use transform="matrix(0.022222222222222223,0,0,0.022222222222222223,57.711111111111116,0)" xlink:href="#E"/><use transform="matrix(0.022222222222222223,0,0,0.022222222222222223,70.53333333333333,0)" xlink:href="#P"/></g><path fill="#3a414a" d="M479 59c-30 4-67 4-97 0V-78H41l-8-11 293-574c33 4 63 17 87 33L180-166h202v-190c30-5 67-5 97 0v190h92c5 27 5 61 0 88h-92V59" id="Q"/><use transform="matrix(0.022222222222222223,0,0,0.022222222222222223,0,0)" xlink:href="#Q" id="d"/><g id="e"><use transform="matrix(0.022222222222222223,0,0,0.022222222222222223,0,0)" xlink:href="#L"/><use transform="matrix(0.022222222222222223,0,0,0.022222222222222223,12.577777777777778,0)" xlink:href="#D"/><use transform="matrix(0.022222222222222223,0,0,0.022222222222222223,20.844444444444445,0)" xlink:href="#E"/></g><path fill="#3a414a" d="M248 12C192 12 120-2 79-16v-717c30-5 69-5 99 0v282c25-40 79-76 148-74 149 4 210 102 211 256C538-91 430 12 248 12zm59-452c-83 0-128 53-129 142v215c23 8 51 11 81 11 117-3 173-73 173-193 0-101-28-175-125-175" id="R"/><path fill="#3a414a" d="M207 0c-30 5-67 5-97 0v-435H45c-5-22-5-56 0-78h162V0zm-12-626c-33 5-74 5-107 0-4-31-4-71 0-101 33-5 74-5 107 0 4 31 4 70 0 101" id="S"/><path fill="#3a414a" d="M288-1C175 26 78-12 78-133v-600c30-5 68-5 98 0v578c-8 70 38 94 103 78 6 23 9 49 9 76" id="T"/><g id="f"><use transform="matrix(0.022222222222222223,0,0,0.022222222222222223,0,0)" xlink:href="#B"/><use transform="matrix(0.022222222222222223,0,0,0.022222222222222223,13.333333333333334,0)" xlink:href="#B"/><use transform="matrix(0.022222222222222223,0,0,0.022222222222222223,26.666666666666668,0)" xlink:href="#P"/><use transform="matrix(0.022222222222222223,0,0,0.022222222222222223,45.644444444444446,0)" xlink:href="#E"/><use transform="matrix(0.022222222222222223,0,0,0.022222222222222223,58.46666666666667,0)" xlink:href="#R"/><use transform="matrix(0.022222222222222223,0,0,0.022222222222222223,71.57777777777778,0)" xlink:href="#S"/><use transform="matrix(0.022222222222222223,0,0,0.022222222222222223,77.97777777777779,0)" xlink:href="#T"/><use transform="matrix(0.022222222222222223,0,0,0.022222222222222223,84.60000000000001,0)" xlink:href="#G"/></g><path fill="#3a414a" d="M17-513c34-5 77-6 111 0L268-90l141-423c32-6 73-5 105 0L314 0c-31 5-68 5-98 0" id="U"/><path fill="#3a414a" d="M315-71c44 0 74-5 107-18 11 18 20 50 21 78-39 15-84 23-135 23C140 15 50-92 50-256c0-165 86-269 251-269 56 0 95 6 135 21 0 26-8 61-17 79-33-11-70-17-112-17-106-1-153 79-153 186 0 119 52 185 161 185" id="V"/><g id="g"><use transform="matrix(0.022222222222222223,0,0,0.022222222222222223,0,0)" xlink:href="#C"/><use transform="matrix(0.022222222222222223,0,0,0.022222222222222223,13.022222222222222,0)" xlink:href="#G"/><use transform="matrix(0.022222222222222223,0,0,0.022222222222222223,25.37777777777778,0)" xlink:href="#U"/><use transform="matrix(0.022222222222222223,0,0,0.022222222222222223,37.17777777777778,0)" xlink:href="#S"/><use transform="matrix(0.022222222222222223,0,0,0.022222222222222223,43.577777777777776,0)" xlink:href="#V"/><use transform="matrix(0.022222222222222223,0,0,0.022222222222222223,54.19999999999999,0)" xlink:href="#G"/><use transform="matrix(0.022222222222222223,0,0,0.022222222222222223,66.55555555555556,0)" xlink:href="#H"/><use transform="matrix(0.022222222222222223,0,0,0.022222222222222223,79.88888888888889,0)" xlink:href="#H"/></g><path fill="#3a414a" d="M231 12C156 12 100 0 46-19c3-32 15-63 24-90 48 16 90 30 157 30 115 0 187-64 155-172-73-125-317-76-317-286 0-192 234-229 403-166-3 28-11 56-22 83-95-46-325-43-266 114 57 89 210 87 276 166 27 32 45 71 45 130C500-63 388 12 231 12" id="W"/><path fill="#3a414a" d="M178 236c-30 5-69 5-99 0v-749c25-5 59-5 84 0 4 20 7 50 10 72 31-48 78-84 156-84 148 0 204 103 208 256C543-65 386 49 178 1v235zm129-675c-84 2-129 58-129 147v208c29 10 50 13 91 13 114 0 164-77 164-194 0-98-30-177-126-174" id="X"/><g id="h"><use transform="matrix(0.022222222222222223,0,0,0.022222222222222223,0,0)" xlink:href="#W"/><use transform="matrix(0.022222222222222223,0,0,0.022222222222222223,12.11111111111111,0)" xlink:href="#P"/><use transform="matrix(0.022222222222222223,0,0,0.022222222222222223,31.08888888888889,0)" xlink:href="#N"/><use transform="matrix(0.022222222222222223,0,0,0.022222222222222223,42.577777777777776,0)" xlink:href="#D"/><use transform="matrix(0.022222222222222223,0,0,0.022222222222222223,50.84444444444445,0)" xlink:href="#O"/><use transform="matrix(0.022222222222222223,0,0,0.022222222222222223,58.79999999999999,0)" xlink:href="#X"/><use transform="matrix(0.022222222222222223,0,0,0.022222222222222223,71.91111111111111,0)" xlink:href="#M"/><use transform="matrix(0.022222222222222223,0,0,0.022222222222222223,84.75555555555556,0)" xlink:href="#E"/><use transform="matrix(0.022222222222222223,0,0,0.022222222222222223,97.57777777777778,0)" xlink:href="#F"/><use transform="matrix(0.022222222222222223,0,0,0.022222222222222223,110.42222222222223,0)" xlink:href="#G"/></g><path fill="#3a414a" d="M51-235c-5-27-5-64 0-91h259c5 27 5 64 0 91H51" id="Y"/><path fill="#3a414a" d="M199 12C137 13 92 3 48-12c3-29 14-57 23-81 80 40 280 38 231-86-16-41-77-44-119-63-71-30-122-50-122-135 0-101 79-148 191-148 51 0 105 12 142 25-3 28-11 56-21 77-31-11-74-23-118-23-73 0-133 65-68 108 83 54 228 46 222 185C404-38 318 9 199 12" id="Z"/><path fill="#3a414a" d="M192-174c-26 12-60 61-28 92 76 37 259-7 320 54 40 40 54 120 19 172-46 69-139 105-255 105-119 0-211-26-211-133C37 56 75 13 116-9 91-26 69-49 69-90c0-55 28-86 61-112-40-28-75-76-73-142 4-120 84-178 209-181 60-1 110 20 144 46 28-22 78-38 129-37 6 26 5 62 0 89h-90c14 22 23 47 23 83 0 143-134 201-280 170zm61 345c86 1 165-25 170-93 6-87-123-58-203-65-55-5-90 34-90 84 0 64 58 73 123 74zm-92-515c0 65 36 107 105 107s106-42 106-107c0-66-37-109-106-109-70 0-105 43-105 109" id="aa"/><g id="i"><use transform="matrix(0.022222222222222223,0,0,0.022222222222222223,0,0)" xlink:href="#B"/><use transform="matrix(0.022222222222222223,0,0,0.022222222222222223,13.333333333333334,0)" xlink:href="#B"/><use transform="matrix(0.022222222222222223,0,0,0.022222222222222223,26.666666666666668,0)" xlink:href="#D"/><use transform="matrix(0.022222222222222223,0,0,0.022222222222222223,34.93333333333334,0)" xlink:href="#N"/><use transform="matrix(0.022222222222222223,0,0,0.022222222222222223,46.422222222222224,0)" xlink:href="#C"/><use transform="matrix(0.022222222222222223,0,0,0.022222222222222223,59.44444444444445,0)" xlink:href="#S"/><use transform="matrix(0.022222222222222223,0,0,0.022222222222222223,65.84444444444445,0)" xlink:href="#E"/><use transform="matrix(0.022222222222222223,0,0,0.022222222222222223,78.66666666666667,0)" xlink:href="#Y"/><use transform="matrix(0.022222222222222223,0,0,0.022222222222222223,86.6888888888889,0)" xlink:href="#Z"/><use transform="matrix(0.022222222222222223,0,0,0.022222222222222223,96.8,0)" xlink:href="#S"/><use transform="matrix(0.022222222222222223,0,0,0.022222222222222223,103.20000000000002,0)" xlink:href="#aa"/><use transform="matrix(0.022222222222222223,0,0,0.022222222222222223,115.48888888888891,0)" xlink:href="#F"/><use transform="matrix(0.022222222222222223,0,0,0.022222222222222223,128.33333333333334,0)" xlink:href="#N"/><use transform="matrix(0.022222222222222223,0,0,0.022222222222222223,139.82222222222222,0)" xlink:href="#N"/><use transform="matrix(0.022222222222222223,0,0,0.022222222222222223,151.3111111111111,0)" xlink:href="#T"/><use transform="matrix(0.022222222222222223,0,0,0.022222222222222223,157.93333333333334,0)" xlink:href="#H"/><use transform="matrix(0.022222222222222223,0,0,0.022222222222222223,171.26666666666668,0)" xlink:href="#H"/></g><g id="j"><use transform="matrix(0.022222222222222223,0,0,0.022222222222222223,0,0)" xlink:href="#I"/><use transform="matrix(0.022222222222222223,0,0,0.022222222222222223,15.533333333333333,0)" xlink:href="#J"/><use transform="matrix(0.022222222222222223,0,0,0.022222222222222223,24.333333333333336,0)" xlink:href="#K"/></g><path fill="#3a414a" d="M471-90c4 28 4 63 0 90H88v-719c30-6 71-5 101 0v629h282" id="ab"/><g id="k"><use transform="matrix(0.022222222222222223,0,0,0.022222222222222223,0,0)" xlink:href="#ab"/><use transform="matrix(0.022222222222222223,0,0,0.022222222222222223,11,0)" xlink:href="#S"/><use transform="matrix(0.022222222222222223,0,0,0.022222222222222223,17.4,0)" xlink:href="#aa"/><use transform="matrix(0.022222222222222223,0,0,0.022222222222222223,29.68888888888889,0)" xlink:href="#M"/><use transform="matrix(0.022222222222222223,0,0,0.022222222222222223,42.53333333333333,0)" xlink:href="#O"/><use transform="matrix(0.022222222222222223,0,0,0.022222222222222223,50.488888888888894,0)" xlink:href="#R"/><use transform="matrix(0.022222222222222223,0,0,0.022222222222222223,63.6,0)" xlink:href="#D"/><use transform="matrix(0.022222222222222223,0,0,0.022222222222222223,71.86666666666667,0)" xlink:href="#S"/><use transform="matrix(0.022222222222222223,0,0,0.022222222222222223,78.26666666666668,0)" xlink:href="#C"/><use transform="matrix(0.022222222222222223,0,0,0.022222222222222223,91.2888888888889,0)" xlink:href="#aa"/><use transform="matrix(0.022222222222222223,0,0,0.022222222222222223,103.5777777777778,0)" xlink:href="#G"/></g><g id="l"><use transform="matrix(0.022222222222222223,0,0,0.022222222222222223,0,0)" xlink:href="#B"/><use transform="matrix(0.022222222222222223,0,0,0.022222222222222223,13.333333333333334,0)" xlink:href="#B"/><use transform="matrix(0.022222222222222223,0,0,0.022222222222222223,26.666666666666668,0)" xlink:href="#S"/><use transform="matrix(0.022222222222222223,0,0,0.022222222222222223,33.06666666666667,0)" xlink:href="#F"/><use transform="matrix(0.022222222222222223,0,0,0.022222222222222223,45.91111111111111,0)" xlink:href="#O"/><use transform="matrix(0.022222222222222223,0,0,0.022222222222222223,53.86666666666667,0)" xlink:href="#G"/><use transform="matrix(0.022222222222222223,0,0,0.022222222222222223,66.22222222222223,0)" xlink:href="#D"/><use transform="matrix(0.022222222222222223,0,0,0.022222222222222223,74.4888888888889,0)" xlink:href="#F"/><use transform="matrix(0.022222222222222223,0,0,0.022222222222222223,87.33333333333334,0)" xlink:href="#G"/><use transform="matrix(0.022222222222222223,0,0,0.022222222222222223,99.6888888888889,0)" xlink:href="#O"/><use transform="matrix(0.022222222222222223,0,0,0.022222222222222223,107.64444444444445,0)" xlink:href="#H"/><use transform="matrix(0.022222222222222223,0,0,0.022222222222222223,120.97777777777779,0)" xlink:href="#H"/></g><path fill="#3a414a" d="M192 0c-32 3-70 5-102 0v-720c206-30 438-9 432 209-3 114-75 169-153 208L578 0c-34 4-79 4-115 0L233-333v-4c87-24 175-59 180-166 5-119-100-157-221-138V0" id="ac"/><path fill="#3a414a" d="M501-719c6 26 5 62 0 89H314V0c-30 4-71 4-102 0v-630H25c-5-27-5-63 0-89h476" id="ad"/><path fill="#3a414a" d="M170 0c-28 5-66 5-94 0l32-719c34-5 81-5 115 0l186 450 187-450c32-6 78-5 110 0L740 0c-30 5-69 5-99 0l-23-559-176 410c-26 4-53 4-79 0L193-562" id="ae"/><g id="m"><use transform="matrix(0.022222222222222223,0,0,0.022222222222222223,0,0)" xlink:href="#ac"/><use transform="matrix(0.022222222222222223,0,0,0.022222222222222223,13.266666666666667,0)" xlink:href="#ad"/><use transform="matrix(0.022222222222222223,0,0,0.022222222222222223,24.955555555555556,0)" xlink:href="#ae"/><use transform="matrix(0.022222222222222223,0,0,0.022222222222222223,43.08888888888889,0)" xlink:href="#L"/></g><g id="n"><use transform="matrix(0.022222222222222223,0,0,0.022222222222222223,0,0)" xlink:href="#B"/><use transform="matrix(0.022222222222222223,0,0,0.022222222222222223,13.333333333333334,0)" xlink:href="#B"/><use transform="matrix(0.022222222222222223,0,0,0.022222222222222223,26.666666666666668,0)" xlink:href="#Z"/><use transform="matrix(0.022222222222222223,0,0,0.022222222222222223,36.77777777777778,0)" xlink:href="#G"/><use transform="matrix(0.022222222222222223,0,0,0.022222222222222223,49.13333333333333,0)" xlink:href="#D"/><use transform="matrix(0.022222222222222223,0,0,0.022222222222222223,57.400000000000006,0)" xlink:href="#U"/><use transform="matrix(0.022222222222222223,0,0,0.022222222222222223,69.2,0)" xlink:href="#G"/><use transform="matrix(0.022222222222222223,0,0,0.022222222222222223,81.55555555555556,0)" xlink:href="#D"/><use transform="matrix(0.022222222222222223,0,0,0.022222222222222223,89.82222222222222,0)" xlink:href="#H"/><use transform="matrix(0.022222222222222223,0,0,0.022222222222222223,103.15555555555557,0)" xlink:href="#H"/></g><g id="o"><use transform="matrix(0.022222222222222223,0,0,0.022222222222222223,0,0)" xlink:href="#ac"/><use transform="matrix(0.022222222222222223,0,0,0.022222222222222223,13.266666666666667,0)" xlink:href="#ad"/><use transform="matrix(0.022222222222222223,0,0,0.022222222222222223,24.955555555555556,0)" xlink:href="#ae"/><use transform="matrix(0.022222222222222223,0,0,0.022222222222222223,43.08888888888889,0)" xlink:href="#L"/><use transform="matrix(0.022222222222222223,0,0,0.022222222222222223,55.66666666666667,0)" xlink:href="#Y"/><use transform="matrix(0.022222222222222223,0,0,0.022222222222222223,63.68888888888888,0)" xlink:href="#Z"/><use transform="matrix(0.022222222222222223,0,0,0.022222222222222223,73.8,0)" xlink:href="#G"/><use transform="matrix(0.022222222222222223,0,0,0.022222222222222223,86.15555555555555,0)" xlink:href="#D"/><use transform="matrix(0.022222222222222223,0,0,0.022222222222222223,94.42222222222223,0)" xlink:href="#U"/><use transform="matrix(0.022222222222222223,0,0,0.022222222222222223,106.2222222222222,0)" xlink:href="#G"/><use transform="matrix(0.022222222222222223,0,0,0.022222222222222223,118.57777777777777,0)" xlink:href="#D"/></g><g id="p"><use transform="matrix(0.022222222222222223,0,0,0.022222222222222223,0,0)" xlink:href="#B"/><use transform="matrix(0.022222222222222223,0,0,0.022222222222222223,13.333333333333334,0)" xlink:href="#B"/><use transform="matrix(0.022222222222222223,0,0,0.022222222222222223,26.666666666666668,0)" xlink:href="#C"/><use transform="matrix(0.022222222222222223,0,0,0.022222222222222223,39.68888888888889,0)" xlink:href="#G"/><use transform="matrix(0.022222222222222223,0,0,0.022222222222222223,52.044444444444444,0)" xlink:href="#U"/><use transform="matrix(0.022222222222222223,0,0,0.022222222222222223,63.84444444444445,0)" xlink:href="#S"/><use transform="matrix(0.022222222222222223,0,0,0.022222222222222223,70.24444444444445,0)" xlink:href="#V"/><use transform="matrix(0.022222222222222223,0,0,0.022222222222222223,80.86666666666667,0)" xlink:href="#G"/><use transform="matrix(0.022222222222222223,0,0,0.022222222222222223,93.22222222222223,0)" xlink:href="#H"/><use transform="matrix(0.022222222222222223,0,0,0.022222222222222223,106.55555555555556,0)" xlink:href="#H"/></g><path fill="#3a414a" d="M407-79c38 0 70-4 97-12v-281c30-5 71-5 101 0v351C551 3 478 12 402 12 174 12 59-126 59-355c0-227 113-368 335-376 72-2 125 10 175 28-3 34-13 56-24 84-43-13-81-25-142-23-164 5-235 118-235 287S242-83 407-79" id="af"/><g id="q"><use transform="matrix(0.022222222222222223,0,0,0.022222222222222223,0,0)" xlink:href="#af"/><use transform="matrix(0.022222222222222223,0,0,0.022222222222222223,15.133333333333335,0)" xlink:href="#D"/><use transform="matrix(0.022222222222222223,0,0,0.022222222222222223,23.400000000000002,0)" xlink:href="#E"/><use transform="matrix(0.022222222222222223,0,0,0.022222222222222223,36.22222222222223,0)" xlink:href="#F"/><use transform="matrix(0.022222222222222223,0,0,0.022222222222222223,49.06666666666668,0)" xlink:href="#C"/><use transform="matrix(0.022222222222222223,0,0,0.022222222222222223,62.0888888888889,0)" xlink:href="#Z"/><use transform="matrix(0.022222222222222223,0,0,0.022222222222222223,72.20000000000002,0)" xlink:href="#O"/><use transform="matrix(0.022222222222222223,0,0,0.022222222222222223,80.15555555555557,0)" xlink:href="#N"/><use transform="matrix(0.022222222222222223,0,0,0.022222222222222223,91.64444444444447,0)" xlink:href="#O"/><use transform="matrix(0.022222222222222223,0,0,0.022222222222222223,99.60000000000002,0)" xlink:href="#S"/><use transform="matrix(0.022222222222222223,0,0,0.022222222222222223,106.00000000000003,0)" xlink:href="#E"/><use transform="matrix(0.022222222222222223,0,0,0.022222222222222223,118.82222222222225,0)" xlink:href="#F"/></g><path fill="#3a414a" d="M27-719c34-5 80-5 113 0l123 599 148-599c32-5 75-5 107 0l149 605 125-605c30-6 72-5 102 0L721 0c-36 6-83 5-119 0L460-563 316 0c-36 5-81 6-116 0" id="ag"/><path fill="#3a414a" d="M175 0c-30 5-69 5-99 0v-733c30-5 69-5 99 0V0zm327 0c-34 5-76 5-110 0L202-266l163-247c33-5 75-5 109 0L311-273" id="ah"/><g id="r"><use transform="matrix(0.022222222222222223,0,0,0.022222222222222223,0,0)" xlink:href="#ag"/><use transform="matrix(0.022222222222222223,0,0,0.022222222222222223,20.46666666666667,0)" xlink:href="#G"/><use transform="matrix(0.022222222222222223,0,0,0.022222222222222223,32.82222222222222,0)" xlink:href="#R"/><use transform="matrix(0.022222222222222223,0,0,0.022222222222222223,45.93333333333334,0)" xlink:href="#Z"/><use transform="matrix(0.022222222222222223,0,0,0.022222222222222223,56.044444444444444,0)" xlink:href="#E"/><use transform="matrix(0.022222222222222223,0,0,0.022222222222222223,68.86666666666667,0)" xlink:href="#V"/><use transform="matrix(0.022222222222222223,0,0,0.022222222222222223,79.4888888888889,0)" xlink:href="#ah"/><use transform="matrix(0.022222222222222223,0,0,0.022222222222222223,90.91111111111111,0)" xlink:href="#G"/><use transform="matrix(0.022222222222222223,0,0,0.022222222222222223,103.26666666666667,0)" xlink:href="#O"/></g><path fill="#3a414a" d="M214 0c-30 5-69 5-99 0v-435H31c-5-20-5-57 0-78h84c-20-177 97-262 266-220-3 33-7 53-15 80-17-3-34-7-56-7-85 0-100 59-96 147h131c4 25 4 53 0 78H214V0" id="ai"/><g id="s"><use transform="matrix(0.022222222222222223,0,0,0.022222222222222223,0,0)" xlink:href="#B"/><use transform="matrix(0.022222222222222223,0,0,0.022222222222222223,13.333333333333334,0)" xlink:href="#B"/><use transform="matrix(0.022222222222222223,0,0,0.022222222222222223,26.666666666666668,0)" xlink:href="#N"/><use transform="matrix(0.022222222222222223,0,0,0.022222222222222223,38.15555555555556,0)" xlink:href="#D"/><use transform="matrix(0.022222222222222223,0,0,0.022222222222222223,46.422222222222224,0)" xlink:href="#O"/><use transform="matrix(0.022222222222222223,0,0,0.022222222222222223,54.37777777777778,0)" xlink:href="#S"/><use transform="matrix(0.022222222222222223,0,0,0.022222222222222223,60.77777777777778,0)" xlink:href="#ai"/><use transform="matrix(0.022222222222222223,0,0,0.022222222222222223,69,0)" xlink:href="#N"/><use transform="matrix(0.022222222222222223,0,0,0.022222222222222223,80.4888888888889,0)" xlink:href="#V"/><use transform="matrix(0.022222222222222223,0,0,0.022222222222222223,91.11111111111111,0)" xlink:href="#O"/><use transform="matrix(0.022222222222222223,0,0,0.022222222222222223,99.06666666666668,0)" xlink:href="#H"/><use transform="matrix(0.022222222222222223,0,0,0.022222222222222223,112.39999999999998,0)" xlink:href="#H"/></g><path fill="#3a414a" d="M407-78c57 1 100-10 140-27 15 29 24 56 28 83-53 23-108 34-181 34C170 12 59-129 59-355c0-227 109-370 333-376 70-2 122 11 171 27-3 34-13 56-24 84-40-14-83-23-139-22-158 2-232 118-230 287 2 170 72 274 237 277" id="aj"/><path fill="#3a414a" d="M314 12C150 12 74-61 74-228v-285c30-5 69-5 99 0v281c-2 106 35 161 140 161 34 0 63-4 87-11v-431c30-5 68-5 98 0v497C449-3 379 12 314 12" id="ak"/><g id="t"><use transform="matrix(0.022222222222222223,0,0,0.022222222222222223,0,0)" xlink:href="#aj"/><use transform="matrix(0.022222222222222223,0,0,0.022222222222222223,13.733333333333334,0)" xlink:href="#E"/><use transform="matrix(0.022222222222222223,0,0,0.022222222222222223,26.555555555555557,0)" xlink:href="#P"/><use transform="matrix(0.022222222222222223,0,0,0.022222222222222223,45.53333333333334,0)" xlink:href="#X"/><use transform="matrix(0.022222222222222223,0,0,0.022222222222222223,58.644444444444446,0)" xlink:href="#ak"/><use transform="matrix(0.022222222222222223,0,0,0.022222222222222223,71.4,0)" xlink:href="#O"/><use transform="matrix(0.022222222222222223,0,0,0.022222222222222223,79.35555555555555,0)" xlink:href="#G"/><use transform="matrix(0.022222222222222223,0,0,0.022222222222222223,91.71111111111111,0)" xlink:href="#D"/><use transform="matrix(0.022222222222222223,0,0,0.022222222222222223,99.97777777777779,0)" xlink:href="#U"/><use transform="matrix(0.022222222222222223,0,0,0.022222222222222223,111.77777777777776,0)" xlink:href="#S"/><use transform="matrix(0.022222222222222223,0,0,0.022222222222222223,118.17777777777778,0)" xlink:href="#Z"/><use transform="matrix(0.022222222222222223,0,0,0.022222222222222223,128.2888888888889,0)" xlink:href="#S"/><use transform="matrix(0.022222222222222223,0,0,0.022222222222222223,134.6888888888889,0)" xlink:href="#G"/></g><path fill="#3a414a" d="M85 160c27 10 81 18 104-2 38-33 46-105 66-157-23 1-50 2-72-1L13-513c33-4 76-4 109 0L264-36l147-477c29-4 71-4 102 0L314 104c-29 79-55 146-160 145-30 0-62-5-85-12 0-33 6-54 16-77" id="al"/><g id="u"><use transform="matrix(0.022222222222222223,0,0,0.022222222222222223,0,0)" xlink:href="#B"/><use transform="matrix(0.022222222222222223,0,0,0.022222222222222223,13.333333333333334,0)" xlink:href="#B"/><use transform="matrix(0.022222222222222223,0,0,0.022222222222222223,26.666666666666668,0)" xlink:href="#C"/><use transform="matrix(0.022222222222222223,0,0,0.022222222222222223,39.68888888888889,0)" xlink:href="#G"/><use transform="matrix(0.022222222222222223,0,0,0.022222222222222223,52.044444444444444,0)" xlink:href="#X"/><use transform="matrix(0.022222222222222223,0,0,0.022222222222222223,65.15555555555555,0)" xlink:href="#T"/><use transform="matrix(0.022222222222222223,0,0,0.022222222222222223,71.77777777777777,0)" xlink:href="#E"/><use transform="matrix(0.022222222222222223,0,0,0.022222222222222223,84.6,0)" xlink:href="#al"/><use transform="matrix(0.022222222222222223,0,0,0.022222222222222223,96.35555555555555,0)" xlink:href="#H"/><use transform="matrix(0.022222222222222223,0,0,0.022222222222222223,109.68888888888887,0)" xlink:href="#H"/></g><path fill="#3a414a" d="M184 0c-29 5-68 5-96 0v-719c28-5 66-5 94 0l313 540v-540c29-5 68-6 97 0V0c-28 5-66 5-94 0L184-537V0" id="am"/><g id="v"><use transform="matrix(0.022222222222222223,0,0,0.022222222222222223,0,0)" xlink:href="#J"/><use transform="matrix(0.022222222222222223,0,0,0.022222222222222223,8.8,0)" xlink:href="#I"/><use transform="matrix(0.022222222222222223,0,0,0.022222222222222223,24.333333333333336,0)" xlink:href="#am"/></g><g id="w"><use transform="matrix(0.022222222222222223,0,0,0.022222222222222223,0,0)" xlink:href="#I"/><use transform="matrix(0.022222222222222223,0,0,0.022222222222222223,15.533333333333333,0)" xlink:href="#D"/><use transform="matrix(0.022222222222222223,0,0,0.022222222222222223,23.8,0)" xlink:href="#E"/><use transform="matrix(0.022222222222222223,0,0,0.022222222222222223,36.62222222222222,0)" xlink:href="#F"/><use transform="matrix(0.022222222222222223,0,0,0.022222222222222223,49.46666666666667,0)" xlink:href="#G"/></g><path fill="#3a414a" d="M600 0c-32 5-76 6-108 0l-50-166H169L120 0C88 5 47 5 16 0l234-719c35-5 81-5 117 0zM196-255h219L305-622" id="an"/><g id="x"><use transform="matrix(0.022222222222222223,0,0,0.022222222222222223,0,0)" xlink:href="#an"/><use transform="matrix(0.022222222222222223,0,0,0.022222222222222223,13.711111111111112,0)" xlink:href="#X"/><use transform="matrix(0.022222222222222223,0,0,0.022222222222222223,26.822222222222223,0)" xlink:href="#X"/></g><g id="y"><use transform="matrix(0.022222222222222223,0,0,0.022222222222222223,0,0)" xlink:href="#B"/><use transform="matrix(0.022222222222222223,0,0,0.022222222222222223,13.333333333333334,0)" xlink:href="#B"/><use transform="matrix(0.022222222222222223,0,0,0.022222222222222223,26.666666666666668,0)" xlink:href="#R"/><use transform="matrix(0.022222222222222223,0,0,0.022222222222222223,39.77777777777778,0)" xlink:href="#G"/><use transform="matrix(0.022222222222222223,0,0,0.022222222222222223,52.13333333333333,0)" xlink:href="#C"/><use transform="matrix(0.022222222222222223,0,0,0.022222222222222223,65.15555555555555,0)" xlink:href="#D"/><use transform="matrix(0.022222222222222223,0,0,0.022222222222222223,73.42222222222222,0)" xlink:href="#N"/><use transform="matrix(0.022222222222222223,0,0,0.022222222222222223,84.91111111111111,0)" xlink:href="#N"/><use transform="matrix(0.022222222222222223,0,0,0.022222222222222223,96.4,0)" xlink:href="#C"/><use transform="matrix(0.022222222222222223,0,0,0.022222222222222223,109.42222222222223,0)" xlink:href="#H"/><use transform="matrix(0.022222222222222223,0,0,0.022222222222222223,122.75555555555556,0)" xlink:href="#H"/></g><path fill="#3a414a" d="M337 12C148 12 81-104 81-293v-426c31-4 72-4 102 0v408c0 133 22 231 154 231 131 0 153-99 153-231v-408c33-4 71-4 103 0v426c1 189-67 305-256 305" id="ao"/><path fill="#3a414a" d="M550-199C551 21 299 28 89 0v-719c39-8 110-11 161-11 146 1 255 43 255 187 0 86-48 137-115 158 97 15 159 73 160 186zm-107-4c0-129-119-138-253-132v256c123 12 253 3 253-124zm-40-334c0-105-107-124-213-109v227c117 8 213-8 213-118" id="ap"/><g id="z"><use transform="matrix(0.022222222222222223,0,0,0.022222222222222223,0,0)" xlink:href="#ao"/><use transform="matrix(0.022222222222222223,0,0,0.022222222222222223,14.977777777777778,0)" xlink:href="#W"/><use transform="matrix(0.022222222222222223,0,0,0.022222222222222223,27.08888888888889,0)" xlink:href="#ap"/></g><g id="A"><use transform="matrix(0.022222222222222223,0,0,0.022222222222222223,0,0)" xlink:href="#aj"/><use transform="matrix(0.022222222222222223,0,0,0.022222222222222223,13.733333333333334,0)" xlink:href="#E"/><use transform="matrix(0.022222222222222223,0,0,0.022222222222222223,26.555555555555557,0)" xlink:href="#F"/><use transform="matrix(0.022222222222222223,0,0,0.022222222222222223,39.400000000000006,0)" xlink:href="#O"/><use transform="matrix(0.022222222222222223,0,0,0.022222222222222223,47.355555555555554,0)" xlink:href="#D"/><use transform="matrix(0.022222222222222223,0,0,0.022222222222222223,55.62222222222223,0)" xlink:href="#E"/><use transform="matrix(0.022222222222222223,0,0,0.022222222222222223,68.44444444444446,0)" xlink:href="#T"/><use transform="matrix(0.022222222222222223,0,0,0.022222222222222223,75.06666666666668,0)" xlink:href="#T"/><use transform="matrix(0.022222222222222223,0,0,0.022222222222222223,81.6888888888889,0)" xlink:href="#G"/><use transform="matrix(0.022222222222222223,0,0,0.022222222222222223,94.04444444444445,0)" xlink:href="#D"/></g></defs></g></svg>